<?xml version="1.0" standalone="no"?>
<!DOCTYPE svg PUBLIC "-//W3C//DTD SVG 1.1//EN" "http://www.w3.org/Graphics/SVG/1.1/DTD/svg11.dtd">
<svg width="64mm" height="27mm" viewBox="-32 -14 64 27" xmlns="http://www.w3.org/2000/svg" version="1.1">
<title>OpenSCAD Model</title>
<path d="
M -31.3,-0.499999 L -31.2866,0.0796022 L -31.2465,0.657968 L -31.1797,1.23386 L -31.0863,1.80606 L -30.9666,2.37333
 L -30.8209,2.93447 L -30.6494,3.48828 L -30.4525,4.03358 L -30.2307,4.56921 L -29.9843,5.09402 L -29.714,5.60689
 L -29.4202,6.10672 L -29.1037,6.59246 L -28.7651,7.06306 L -28.4051,7.51753 L -28.0246,7.95488 L -27.6242,8.37419
 L -27.2049,8.77456 L -26.7675,9.15514 L -26.3131,9.51512 L -25.8425,9.85372 L -25.3567,10.1702 L -24.8569,10.464
 L -24.344,10.7343 L -23.8192,10.9807 L -23.2836,11.2025 L -22.7383,11.3994 L -22.1845,11.5709 L -21.6233,11.7166
 L -21.0561,11.8363 L -20.4839,11.9297 L -19.908,11.9965 L -19.3296,12.0366 L -18.75,12.05 L 18.75,12.05
 L 19.3296,12.0366 L 19.908,11.9965 L 20.4839,11.9297 L 21.0561,11.8363 L 21.6233,11.7166 L 22.1845,11.5709
 L 22.7383,11.3994 L 23.2836,11.2025 L 23.8192,10.9807 L 24.344,10.7343 L 24.8569,10.464 L 25.3567,10.1702
 L 25.8425,9.85372 L 26.3131,9.51512 L 26.7675,9.15514 L 27.2049,8.77456 L 27.6242,8.37419 L 28.0246,7.95488
 L 28.4051,7.51753 L 28.7651,7.06306 L 29.1037,6.59246 L 29.4202,6.10672 L 29.714,5.60689 L 29.9843,5.09402
 L 30.2307,4.56921 L 30.4525,4.03358 L 30.6494,3.48828 L 30.8209,2.93447 L 30.9666,2.37333 L 31.0863,1.80606
 L 31.1797,1.23386 L 31.2465,0.657968 L 31.2866,0.0796022 L 31.3,-0.5 L 31.3,-0.75 L 31.2866,-1.3296
 L 31.2465,-1.90797 L 31.1797,-2.48386 L 31.0863,-3.05606 L 30.9666,-3.62333 L 30.8209,-4.18447 L 30.6494,-4.73828
 L 30.4525,-5.28358 L 30.2307,-5.81921 L 29.9843,-6.34402 L 29.714,-6.85689 L 29.4202,-7.35672 L 29.1037,-7.84246
 L 28.7651,-8.31306 L 28.4051,-8.76753 L 28.0246,-9.20488 L 27.6242,-9.62419 L 27.2049,-10.0246 L 26.7675,-10.4051
 L 26.3131,-10.7651 L 25.8425,-11.1037 L 25.3567,-11.4202 L 24.8569,-11.714 L 24.344,-11.9843 L 23.8192,-12.2307
 L 23.2836,-12.4525 L 22.7383,-12.6494 L 22.1845,-12.8209 L 21.6233,-12.9666 L 21.0561,-13.0863 L 20.4839,-13.1797
 L 19.908,-13.2465 L 19.3296,-13.2866 L 18.75,-13.3 L -18.75,-13.3 L -19.3296,-13.2866 L -19.908,-13.2465
 L -20.4839,-13.1797 L -21.0561,-13.0863 L -21.6233,-12.9666 L -22.1845,-12.8209 L -22.7383,-12.6494 L -23.2836,-12.4525
 L -23.8192,-12.2307 L -24.344,-11.9843 L -24.8569,-11.714 L -25.3567,-11.4202 L -25.8425,-11.1037 L -26.3131,-10.7651
 L -26.7675,-10.4051 L -27.2049,-10.0246 L -27.6242,-9.62419 L -28.0246,-9.20488 L -28.4051,-8.76753 L -28.7651,-8.31306
 L -29.1037,-7.84246 L -29.4202,-7.35672 L -29.714,-6.85689 L -29.9843,-6.34402 L -30.2307,-5.81921 L -30.4525,-5.28358
 L -30.6494,-4.73828 L -30.8209,-4.18447 L -30.9666,-3.62333 L -31.0863,-3.05606 L -31.1797,-2.48386 L -31.2465,-1.90797
 L -31.2866,-1.3296 L -31.3,-0.749999 z
" stroke="black" fill="lightgray" stroke-width="0.5"/>
</svg>
