<?xml version="1.0" standalone="no"?>
<!DOCTYPE svg PUBLIC "-//W3C//DTD SVG 1.1//EN" "http://www.w3.org/Graphics/SVG/1.1/DTD/svg11.dtd">
<svg width="66mm" height="26mm" viewBox="-33 -13 66 26" xmlns="http://www.w3.org/2000/svg" version="1.1">
<title>OpenSCAD Model</title>
<path d="
M -32.3311,-9.27073 L -32.306,-0.337081 L -32.3047,-0.284878 L -32.297,0.0205511 L -32.2936,0.0707629 L -32.272,0.376917
 L -32.2668,0.424112 L -32.2313,0.731465 L -32.2245,0.77497 L -32.1748,1.08364 L -32.1669,1.12313 L -32.1026,1.43287
 L -32.094,1.46836 L -32.0149,1.77866 L -32.0058,1.81033 L -31.9118,2.12047 L -31.9025,2.14863 L -31.7934,2.45777
 L -31.7803,2.49161 L -31.6558,2.79958 L -31.6427,2.82841 L -31.5035,3.1328 L -31.4968,3.14602 L -31.3437,3.44445
 L -31.3367,3.4573 L -31.1701,3.74917 L -31.1628,3.76164 L -31.1557,3.77305 L -30.9754,4.05843 L -30.968,4.06953
 L -30.7747,4.34708 L -30.7671,4.35785 L -30.7596,4.36789 L -30.5533,4.63747 L -30.5455,4.64724 L -30.3269,4.90785
 L -30.3189,4.91733 L -30.3108,4.92634 L -30.08,5.17764 L -30.0716,5.1864 L -29.8294,5.42746 L -29.8207,5.43595
 L -29.8091,5.44659 L -29.5566,5.67626 L -29.5446,5.68643 L -29.2823,5.90432 L -29.2699,5.914 L -28.9982,6.11981
 L -28.9854,6.129 L -28.7048,6.32241 L -28.6917,6.3311 L -28.4025,6.51182 L -28.3891,6.51999 L -28.0918,6.68772
 L -28.078,6.69534 L -27.7731,6.84975 L -27.7591,6.85683 L -27.7448,6.86334 L -27.4335,7.00377 L -27.4189,7.00972
 L -27.102,7.13589 L -27.0872,7.14126 L -26.7652,7.25301 L -26.7502,7.25779 L -26.4235,7.35498 L -26.4084,7.35917
 L -26.0776,7.44164 L -26.0623,7.44524 L -25.7278,7.51284 L -25.7124,7.51583 L -25.3748,7.56841 L -25.3592,7.57079
 L -25.1645,7.59683 L -24.9801,7.62189 L -24.9446,7.62682 L -24.7713,7.65084 L -24.6098,7.67378 L -24.46,7.69562
 L -24.3216,7.71634 L -24.2859,7.72167 L -24.1582,7.74123 L -24.0395,7.75961 L -23.8208,7.79319 L -23.6077,7.82455
 L -23.5717,7.82986 L -23.459,7.84598 L -23.338,7.86323 L -23.2058,7.88226 L -23.0601,7.90368 L -22.8988,7.92808
 L -22.8634,7.9335 L -22.6852,7.96137 L -22.4896,7.99303 L -22.2773,8.02857 L -22.2421,8.03466 L -22.0157,8.07384
 L -21.7794,8.11608 L -21.2979,8.20627 L -21.2627,8.21293 L -21.0287,8.25884 L -20.806,8.30391 L -20.7711,8.31116
 L -20.5633,8.35451 L -20.3728,8.39549 L -20.2003,8.43372 L -20.0452,8.46904 L -20.0103,8.47701 L -19.8712,8.50942
 L -19.7461,8.53908 L -19.6325,8.56627 L -19.5272,8.59155 L -19.3255,8.63991 L -19.2201,8.66532 L -19.1853,8.6738
 L -19.0714,8.70167 L -18.9456,8.73311 L -18.806,8.7689 L -18.6522,8.80935 L -18.6176,8.8184 L -18.4508,8.86318
 L -18.0927,8.96146 L -17.7327,9.06143 L -17.5635,9.10836 L -17.4936,9.1276 L -17.3363,9.17099 L -17.193,9.21024
 L -17.0636,9.24535 L -16.9463,9.27699 L -16.8367,9.30661 L -16.7282,9.33639 L -16.6134,9.36881 L -16.5791,9.3787
 L -16.4516,9.41589 L -16.3075,9.45907 L -16.146,9.50842 L -15.9687,9.56331 L -15.9345,9.57393 L -15.7444,9.63329
 L -15.5449,9.69582 L -15.1336,9.82477 L -15.0988,9.83564 L -14.8953,9.89901 L -14.6987,9.95967 L -14.512,10.0165
 L -14.4768,10.0271 L -14.3008,10.0798 L -13.9725,10.1753 L -13.9373,10.1853 L -13.6103,10.2772 L -13.4341,10.3263
 L -13.2436,10.3794 L -13.0365,10.4373 L -13.0016,10.447 L -12.7777,10.5098 L -12.5388,10.577 L -12.288,10.6476
 L -12.2182,10.6672 L -11.1758,10.9587 L -10.927,11.027 L -10.8919,11.0366 L -10.6562,11.1005 L -10.4371,11.1588
 L -10.237,11.2108 L -10.2014,11.2199 L -10.0218,11.2652 L -9.86241,11.304 L -9.72117,11.3369 L -9.70315,11.3411
 L -9.57589,11.3698 L -9.34115,11.4212 L -9.32348,11.4252 L -9.20494,11.4514 L -9.07962,11.4794 L -8.94417,11.5098
 L -8.79603,11.543 L -8.76055,11.5509 L -8.59784,11.5867 L -8.41929,11.625 L -8.22424,11.6654 L -8.18805,11.6726
 L -7.97643,11.7145 L -7.74872,11.7571 L -7.50581,11.7999 L -7.46929,11.806 L -7.21251,11.848 L -6.94347,11.8886
 L -6.6641,11.9272 L -6.62741,11.9321 L -6.33993,11.968 L -5.75079,12.0311 L -5.71412,12.0349 L -5.1235,12.0868
 L -5.0869,12.0898 L -4.51224,12.1322 L -4.4757,12.1347 L -4.19797,12.1531 L -3.92771,12.1698 L -3.66519,12.1851
 L -3.41035,12.1991 L -3.33738,12.203 L -3.08987,12.2158 L -2.84909,12.2273 L -2.38436,12.2473 L -2.37733,12.2476
 L -2.37042,12.2479 L -2.36389,12.2481 L -2.35792,12.2483 L -1.90722,12.2643 L -1.90135,12.2645 L -1.89634,12.2646
 L -1.89234,12.2648 L -1.89077,12.2648 L -1.8895,12.2648 L -0.989032,12.2848 L -0.954885,12.2854 L -0.489998,12.2891
 L -0.472329,12.2892 L 0.0112973,12.2884 L 0.0296249,12.2884 L 0.0480556,12.2883 L 0.53168,12.2863 L 0.549444,12.2861
 L 1.0143,12.2799 L 1.04863,12.279 L 1.94898,12.254 L 1.95026,12.254 L 1.95184,12.2539 L 1.95585,12.2538
 L 1.96089,12.2536 L 1.96677,12.2534 L 2.41738,12.2349 L 2.42334,12.2346 L 2.42988,12.2343 L 2.43679,12.234
 L 2.44382,12.2337 L 2.90843,12.2111 L 3.14914,12.1982 L 3.39657,12.184 L 3.46948,12.1798 L 3.72424,12.1644
 L 3.98667,12.1476 L 4.25684,12.1293 L 4.53446,12.1094 L 4.57096,12.1067 L 5.14537,12.061 L 5.18194,12.0577
 L 5.77225,12.0026 L 5.80892,11.9985 L 6.3977,11.9321 L 6.68497,11.8945 L 6.72163,11.8894 L 7.00077,11.8493
 L 7.26957,11.8071 L 7.52611,11.7636 L 7.56259,11.7574 L 7.80525,11.7133 L 8.03272,11.6693 L 8.2441,11.6263
 L 8.28023,11.6189 L 8.47505,11.5775 L 8.65338,11.5381 L 8.81589,11.5014 L 8.96384,11.4674 L 9.09912,11.4362
 L 9.13464,11.4282 L 9.2598,11.3995 L 9.37819,11.3727 L 9.61264,11.3199 L 9.73974,11.2905 L 9.77532,11.2821
 L 9.91637,11.2483 L 10.0755,11.2087 L 10.2548,11.1623 L 10.2904,11.153 L 10.4901,11.0998 L 10.7089,11.0403
 L 10.9442,10.9751 L 10.9792,10.9653 L 11.2276,10.8956 L 12.2684,10.5983 L 12.3381,10.5783 L 12.5885,10.5062
 L 12.827,10.4377 L 13.0505,10.3736 L 13.2573,10.3145 L 13.2921,10.3046 L 13.4823,10.2505 L 13.6583,10.2004
 L 13.9848,10.1066 L 14.0199,10.0965 L 14.3477,9.9992 L 14.5234,9.94551 L 14.5585,9.93471 L 14.7449,9.87678
 L 14.9412,9.81501 L 15.1443,9.75049 L 15.179,9.73941 L 15.5896,9.60815 L 15.7888,9.54449 L 15.9785,9.48407
 L 16.0128,9.47321 L 16.1898,9.41732 L 16.351,9.36707 L 16.4949,9.32308 L 16.6222,9.28517 L 16.6564,9.27513
 L 16.771,9.24207 L 16.8793,9.21167 L 16.9888,9.18144 L 17.1059,9.14914 L 17.2351,9.1133 L 17.3782,9.07324
 L 17.5352,9.02897 L 17.6047,9.00941 L 17.7736,8.96154 L 18.1331,8.85954 L 18.4907,8.75924 L 18.6571,8.71353
 L 18.8108,8.67221 L 18.8453,8.66287 L 18.9847,8.62629 L 19.1103,8.59415 L 19.224,8.56564 L 19.3293,8.53964
 L 19.3639,8.53096 L 19.5654,8.48146 L 19.6705,8.45559 L 19.784,8.42776 L 19.9089,8.3974 L 20.0479,8.3642
 L 20.0826,8.35616 L 20.2376,8.31996 L 20.4099,8.28076 L 20.6001,8.23871 L 20.8077,8.19419 L 20.8426,8.18676
 L 21.0651,8.14044 L 21.2988,8.09321 L 21.3339,8.08637 L 21.8149,7.99346 L 22.051,7.9499 L 22.2771,7.90945
 L 22.3123,7.90318 L 22.5243,7.86644 L 22.7198,7.83368 L 22.8978,7.80481 L 22.9331,7.79915 L 23.0942,7.77384
 L 23.2398,7.7516 L 23.3719,7.73184 L 23.4928,7.7139 L 23.6054,7.69714 L 23.6412,7.69166 L 23.8542,7.6591
 L 24.0727,7.62429 L 24.1912,7.60524 L 24.3189,7.58496 L 24.3547,7.57941 L 24.4929,7.55791 L 24.6425,7.53523
 L 24.804,7.51138 L 24.9771,7.48638 L 25.0127,7.48129 L 25.197,7.4552 L 25.3916,7.42806 L 25.4071,7.42559
 L 25.7444,7.37112 L 25.7598,7.36803 L 26.0937,7.29859 L 26.1091,7.2949 L 26.4391,7.21066 L 26.4543,7.20636
 L 26.78,7.10749 L 26.795,7.10259 L 27.116,6.98925 L 27.1308,6.98378 L 27.4464,6.85614 L 27.461,6.85008
 L 27.7708,6.70832 L 27.7851,6.70169 L 27.7992,6.69449 L 28.1027,6.53877 L 28.1165,6.53102 L 28.4133,6.36154
 L 28.4267,6.35327 L 28.7152,6.17081 L 28.7283,6.16201 L 29.008,5.96708 L 29.0207,5.95777 L 29.2911,5.75071
 L 29.3035,5.74091 L 29.5641,5.52206 L 29.5761,5.51178 L 29.8267,5.28148 L 29.8383,5.27073 L 29.8469,5.26214
 L 30.087,5.02077 L 30.0954,5.0119 L 30.3246,4.75986 L 30.3327,4.75073 L 30.3408,4.74112 L 30.5584,4.47906
 L 30.5662,4.46916 L 30.7719,4.19758 L 30.7794,4.1874 L 30.787,4.1765 L 30.9794,3.89716 L 30.9867,3.88592
 L 31.1659,3.59909 L 31.1729,3.58753 L 31.1801,3.57488 L 31.3454,3.2819 L 31.3523,3.26884 L 31.5038,2.96967
 L 31.5104,2.95622 L 31.6479,2.65147 L 31.6609,2.62212 L 31.7836,2.31389 L 31.7966,2.27939 L 31.9042,1.96915
 L 31.9133,1.94096 L 32.0059,1.62957 L 32.0147,1.59801 L 32.0922,1.28653 L 32.1005,1.25134 L 32.1632,0.940466
 L 32.1707,0.90151 L 32.2189,0.591739 L 32.2252,0.549037 L 32.2591,0.2406 L 32.2639,0.19448 L 32.2837,-0.112724
 L 32.2868,-0.161622 L 32.2928,-0.468027 L 32.2937,-0.518755 L 32.2686,-9.4524 L 32.2673,-9.48491 L 32.2558,-9.72074
 L 32.2522,-9.75229 L 32.2187,-9.98738 L 32.2131,-10.0175 L 32.1576,-10.2505 L 32.15,-10.2789 L 32.0725,-10.5082
 L 32.0633,-10.5346 L 32.0541,-10.5562 L 31.9534,-10.7824 L 31.9433,-10.8018 L 31.8209,-11.0202 L 31.8102,-11.0375
 L 31.6667,-11.2458 L 31.6588,-11.257 L 31.6513,-11.2665 L 31.4873,-11.4629 L 31.4794,-11.472 L 31.4718,-11.4797
 L 31.2887,-11.6618 L 31.2808,-11.6691 L 31.081,-11.834 L 31.0727,-11.8409 L 31.0646,-11.8468 L 30.8493,-11.9935
 L 30.8409,-11.999 L 30.8326,-12.0037 L 30.6036,-12.1304 L 30.5951,-12.1347 L 30.355,-12.2399 L 30.3462,-12.2436
 L 30.3375,-12.2468 L 30.0882,-12.3296 L 30.0793,-12.3323 L 29.8232,-12.3918 L 29.8141,-12.3939 L 29.8051,-12.3955
 L 29.5443,-12.4311 L 29.5352,-12.4321 L 29.5312,-12.4323 L 29.2682,-12.4438 L 29.2642,-12.4439 L 29.2602,-12.444
 L 27.8854,-12.4401 L 27.7054,-12.4396 L -27.9643,-12.283 L -29.3396,-12.2792 L -29.3434,-12.2791 L -29.3472,-12.2789
 L -29.6101,-12.266 L -29.6139,-12.2658 L -29.6231,-12.2648 L -29.8836,-12.2277 L -29.8927,-12.2261 L -29.9017,-12.224
 L -30.1575,-12.1631 L -30.1664,-12.1604 L -30.4152,-12.0762 L -30.4239,-12.0731 L -30.4326,-12.0693 L -30.6721,-11.9627
 L -30.6805,-11.9585 L -30.9088,-11.8305 L -30.9169,-11.8258 L -30.9253,-11.8203 L -31.1398,-11.6724 L -31.1478,-11.6665
 L -31.1561,-11.6597 L -31.3549,-11.4937 L -31.3628,-11.4864 L -31.5448,-11.3033 L -31.5523,-11.2957 L -31.5601,-11.2868
 L -31.7231,-11.0894 L -31.7305,-11.0801 L -31.7383,-11.069 L -31.8806,-10.86 L -31.8914,-10.8426 L -32.0126,-10.6236
 L -32.0227,-10.604 L -32.122,-10.3773 L -32.1314,-10.3555 L -32.1406,-10.3287 L -32.2168,-10.0993 L -32.2244,-10.0702
 L -32.2785,-9.83742 L -32.2842,-9.80649 L -32.3162,-9.57182 L -32.3198,-9.5394 L -32.33,-9.30419 z
M -23.1341,-9.24659 L -20.6341,-9.25362 L -20.5473,-9.24627 L -20.463,-9.22395 L -20.3839,-9.18734 L -20.3124,-9.13755
 L -20.2506,-9.07609 L -20.2004,-9.00484 L -20.1633,-8.92595 L -20.1405,-8.84183 L -20.1327,-8.75503 L -20.0974,3.79492
 L -20.1048,3.88177 L -20.1271,3.96601 L -20.1637,4.04511 L -20.2135,4.11664 L -20.2749,4.17844 L -20.3462,4.22863
 L -20.4251,4.26569 L -20.5092,4.28848 L -20.596,4.29632 L -23.096,4.30336 z
M 20.0831,-8.86813 L 20.0905,-8.95497 L 20.1128,-9.03922 L 20.1494,-9.11832 L 20.1992,-9.18985 L 20.2607,-9.25165
 L 20.3319,-9.30184 L 20.4108,-9.3389 L 20.4949,-9.36169 L 20.5817,-9.36953 L 23.0817,-9.37656 L 23.1198,4.17338
 L 20.6198,4.18041 L 20.533,4.17306 L 20.4487,4.15074 L 20.3696,4.11413 L 20.2981,4.06434 L 20.2363,4.00288
 L 20.1861,3.93163 L 20.1491,3.85275 L 20.1263,3.76862 L 20.1184,3.68182 z
" stroke="black" fill="lightgray" stroke-width="0.5"/>
</svg>
