<?xml version="1.0" standalone="no"?>
<!DOCTYPE svg PUBLIC "-//W3C//DTD SVG 1.1//EN" "http://www.w3.org/Graphics/SVG/1.1/DTD/svg11.dtd">
<svg width="58mm" height="31mm" viewBox="-29 -10 58 31" xmlns="http://www.w3.org/2000/svg" version="1.1">
<title>OpenSCAD Model</title>
<path d="
M -28.0468,-3.15873 L -27.7955,14.8395 L -27.7784,15.2161 L -27.7377,15.5908 L -27.6736,15.9622 L -27.5862,16.3289
 L -27.476,16.6893 L -27.3434,17.0422 L -27.1889,17.386 L -27.0131,17.7194 L -26.8167,18.0411 L -26.6005,18.3499
 L -26.3653,18.6445 L -26.1122,18.9237 L -25.8419,19.1865 L -25.5557,19.4318 L -25.2547,19.6586 L -24.94,19.8661
 L -24.6129,20.0534 L -24.2747,20.2198 L -23.9268,20.3647 L -23.5704,20.4874 L -23.207,20.5875 L -22.838,20.6646
 L -22.4649,20.7184 L -22.0892,20.7486 L -21.7123,20.7552 L 22.2834,20.1409 L 22.6599,20.1238 L 23.0346,20.083
 L 23.4061,20.0189 L 23.7727,19.9315 L 24.1332,19.8213 L 24.486,19.6887 L 24.8298,19.5342 L 25.1633,19.3584
 L 25.485,19.162 L 25.7937,18.9458 L 26.0883,18.7107 L 26.3675,18.4575 L 26.6303,18.1873 L 26.8756,17.9011
 L 27.1025,17.6 L 27.31,17.2854 L 27.4973,16.9583 L 27.6637,16.6201 L 27.8086,16.2721 L 27.9313,15.9157
 L 28.0314,15.5523 L 28.1084,15.1833 L 28.1622,14.8103 L 28.1924,14.4345 L 28.199,14.0577 L 27.9477,-3.94058
 L 27.9306,-4.31712 L 27.8899,-4.69185 L 27.8257,-5.06328 L 27.7384,-5.42994 L 27.6282,-5.7904 L 27.4956,-6.14323
 L 27.3411,-6.48704 L 27.1653,-6.82046 L 26.9689,-7.14219 L 26.7527,-7.45095 L 26.5175,-7.74553 L 26.2643,-8.02476
 L 25.9941,-8.28754 L 25.7079,-8.53284 L 25.4069,-8.75968 L 25.0922,-8.96717 L 24.7651,-9.1545 L 24.4269,-9.32091
 L 24.0789,-9.46576 L 23.7225,-9.58848 L 23.3591,-9.68858 L 22.9902,-9.76566 L 22.6171,-9.81942 L 22.2414,-9.84965
 L 21.8645,-9.85623 L -22.1312,-9.24191 L -22.5077,-9.22481 L -22.8825,-9.1841 L -23.2539,-9.11995 L -23.6206,-9.0326
 L -23.981,-8.92239 L -24.3338,-8.78977 L -24.6776,-8.63526 L -25.0111,-8.45947 L -25.3328,-8.26308 L -25.6416,-8.04689
 L -25.9361,-7.81173 L -26.2154,-7.55854 L -26.4781,-7.28831 L -26.7234,-7.00212 L -26.9503,-6.70109 L -27.1578,-6.38641
 L -27.3451,-6.05933 L -27.5115,-5.72112 L -27.6564,-5.37314 L -27.7791,-5.01675 L -27.8792,-4.65335 L -27.9563,-4.28439
 L -28.01,-3.91131 L -28.0403,-3.5356 z
M -19.8726,-2.34349 L -17.5047,-2.37655 L -17.3958,-2.37451 L -17.2873,-2.36545 L -17.1794,-2.34949 L -17.0727,-2.3268
 L -16.9675,-2.2975 L -16.8642,-2.26173 L -16.7632,-2.21965 L -16.6649,-2.17138 L -16.5698,-2.11708 L -16.4781,-2.05688
 L -16.3904,-1.99092 L -16.307,-1.91934 L -16.2283,-1.84229 L -16.1546,-1.7599 L -16.0865,-1.67232 L -16.0243,-1.57969
 L -15.9694,-1.48129 L -15.9212,-1.37954 L -15.8798,-1.2749 L -15.8454,-1.16779 L -15.8181,-1.05866 L -15.7979,-0.947955
 L -15.7851,-0.83611 L -15.7798,-0.723569 L -15.6012,12.0628 L -15.6034,12.1755 L -15.6131,12.2876 L -15.6301,12.3988
 L -15.6544,12.5087 L -15.6858,12.6167 L -15.7243,12.7225 L -15.7696,12.8255 L -15.8218,12.9254 L -15.8814,13.0198
 L -15.947,13.1092 L -16.0183,13.1936 L -16.0949,13.2729 L -16.1763,13.3467 L -16.2621,13.4151 L -16.352,13.4779
 L -16.4456,13.5348 L -16.5425,13.5858 L -16.6423,13.6307 L -16.7445,13.6693 L -16.8489,13.7015 L -16.9549,13.7272
 L -17.0623,13.7461 L -17.1706,13.7582 L -17.2794,13.7633 L -19.6472,13.7964 z
M 15.7534,-1.16387 L 15.7556,-1.27652 L 15.7653,-1.38867 L 15.7823,-1.4999 L 15.8066,-1.60975 L 15.838,-1.71778
 L 15.8765,-1.82354 L 15.9218,-1.92659 L 15.974,-2.02648 L 16.0336,-2.12082 L 16.0992,-2.21028 L 16.1705,-2.29469
 L 16.247,-2.37391 L 16.3284,-2.44779 L 16.4143,-2.51618 L 16.5042,-2.57892 L 16.5978,-2.63585 L 16.6947,-2.68684
 L 16.7945,-2.73172 L 16.8967,-2.77036 L 17.0011,-2.80258 L 17.1071,-2.82824 L 17.2145,-2.8472 L 17.3228,-2.85929
 L 17.4315,-2.86437 L 19.7994,-2.89743 L 20.0248,13.2424 L 17.6569,13.2755 L 17.548,13.2734 L 17.4394,13.2644
 L 17.3316,13.2484 L 17.2249,13.2257 L 17.1197,13.1964 L 17.0164,13.1607 L 16.9154,13.1186 L 16.8171,13.0703
 L 16.722,13.016 L 16.6303,12.9558 L 16.5426,12.8899 L 16.4592,12.8183 L 16.3804,12.7412 L 16.3068,12.6588
 L 16.2387,12.5713 L 16.1765,12.4786 L 16.1216,12.3802 L 16.0734,12.2785 L 16.032,12.1738 L 15.9976,12.0667
 L 15.9702,11.9576 L 15.9501,11.8469 L 15.9373,11.735 L 15.932,11.6225 z
" stroke="black" fill="lightgray" stroke-width="0.5"/>
</svg>
