<?xml version="1.0" encoding="UTF-8" standalone="no"?>
<svg
   width="217.028mm"
   height="20.0mm"
   viewBox="-108.514 109.25819999999999 217.028 20.0"
   xmlns="http://www.w3.org/2000/svg">
  <path d="M -0.0000,-100.1759 -4.4885,-99.0481 -94.0610,-97.9203 -102.9810,-96.7925 -103.0015,-95.6646 -103.0220,-94.5368 -103.0425,-93.4090 -103.0630,-92.2812 -103.0835,-91.1534 -103.1040,-90.0256 -103.1245,-88.8978 -103.1450,-87.7700 -103.1655,-86.6422 -103.1860,-85.5144 -103.2065,-84.3865 -103.2270,-83.2587 -103.2475,-82.1309 -103.2680,-81.0031 -103.2885,-79.8753 -103.3090,-78.7475 -103.3295,-77.6197 -103.3500,-76.4919 -103.3705,-75.3641 -103.3910,-74.2363 -103.4115,-73.1084 -103.4320,-71.9806 -103.4525,-70.8528 -103.4730,-69.7250 -103.4935,-68.5972 -103.5140,-67.4694 -103.5022,-66.3416 -103.4585,-65.2138 -103.4148,-64.0860 -103.3711,-62.9582 -103.3274,-61.8304 -103.2837,-60.7025 -103.2400,-59.5747 -103.1964,-58.4469 -103.1527,-57.3191 -103.1090,-56.1913 -103.0653,-55.0635 -103.0216,-53.9357 -102.9779,-52.8079 -102.9342,-51.6801 -102.8905,-50.5523 -102.8468,-49.4244 -102.8031,-48.2966 -102.7594,-47.1688 -102.7157,-46.0410 -102.6720,-44.9132 -102.6283,-43.7854 -102.5846,-42.6576 -102.5409,-41.5298 -102.4972,-40.4020 -102.4535,-39.2742 -102.4098,-38.1464 -102.3661,-37.0185 -102.3224,-35.8907 -102.2787,-34.7629 -102.2350,-33.6351 -102.1913,-32.5073 -102.1476,-31.3795 -102.1039,-30.2517 -102.0602,-29.1239 -102.0165,-27.9961 -101.9728,-26.8683 -101.9291,-25.7404 -101.8783,-24.6126 -101.8019,-23.4848 -101.7256,-22.3570 -101.6492,-21.2292 -101.5728,-20.1014 -101.4965,-18.9736 -101.4201,-17.8458 -101.3438,-16.7180 -101.2674,-15.5902 -101.1910,-14.4624 -101.1147,-13.3345 -101.0383,-12.2067 -100.9619,-11.0789 -100.8856,-9.9511 -100.8092,-8.8233 -100.7329,-7.6955 -100.6565,-6.5677 -100.5801,-5.4399 -100.5038,-4.3121 -100.4274,-3.1843 -100.3511,-2.0564 -100.2747,-0.9286 -100.1983,0.1992 -100.1220,1.3270 -100.0456,2.4548 -99.9693,3.5826 -99.8929,4.7104 -99.8165,5.8382 -99.7402,6.9660 -99.6638,8.0938 -99.5875,9.2216 -99.5111,10.3495 -99.4347,11.4773 -99.3584,12.6051 -99.2820,13.7329 -99.2057,14.8607 -99.1293,15.9885 -99.0529,17.1163 -98.9766,18.2441 -98.9002,19.3719 -98.8239,20.4997 -98.7475,21.6276 -98.6711,22.7554 -98.5948,23.8832 -98.5184,25.0110 -98.4420,26.1388 -98.3657,27.2666 -98.2893,28.3944 -98.2130,29.5222 -98.1366,30.6500 -98.0602,31.7778 -97.9839,32.9056 -97.9075,34.0335 -97.8312,35.1613 -97.7548,36.2891 -97.6784,37.4169 -97.6021,38.5447 -97.5257,39.6725 -97.4494,40.8003 -97.3730,41.9281 -97.2966,43.0559 -97.2203,44.1837 -97.1439,45.3116 -97.0676,46.4394 -96.9912,47.5672 -96.9148,48.6950 -96.8385,49.8228 -96.7621,50.9506 -96.6858,52.0784 -96.6094,53.2062 -96.5330,54.3340 -96.4567,55.4618 -96.3803,56.5896 -96.3039,57.7175 -96.1934,58.8453 -96.0111,59.9731 -95.7495,61.1009 -95.4352,62.2287 -95.1208,63.3565 -94.8064,64.4843 -94.4920,65.6121 -94.1776,66.7399 -93.8633,67.8677 -93.5489,68.9956 -93.2345,70.1234 -92.9201,71.2512 -92.6058,72.3790 -92.2914,73.5068 -91.9770,74.6346 -91.6626,75.7624 -91.3482,76.8902 -91.0339,78.0180 -90.7195,79.1458 -90.4051,80.2736 -90.0907,81.4015 -89.7763,82.5293 -89.4620,83.6571 -89.1476,84.7849 -88.8332,85.9127 -88.5188,87.0405 -88.2045,88.1683 -87.7212,89.2961 -87.1207,90.4239 -86.5203,91.5517 -85.9198,92.6796 -85.3194,93.8074 -84.7189,94.9352 -84.1185,96.0630 -83.5180,97.1908 -82.9176,98.3186 -82.3171,99.4464 -81.7167,100.5742 -81.1162,101.7020 -80.5158,102.8298 -79.9153,103.9576 -79.3149,105.0855 -78.4723,106.2133 -76.8893,107.3411 -75.3062,108.4689 -69.4680,109.5967 -68.7134,110.7245 -67.9588,111.8523 -67.2043,112.9801 -66.4497,114.1079 -65.6951,115.2357 -64.3721,116.3636 -62.7247,117.4914 -61.0772,118.6192 -59.2112,119.7470 -56.4290,120.8748 -53.6467,122.0026 -33.3640,123.1304 -0.0000,124.2582 0.0000,124.2582 33.3640,123.1304 53.6467,122.0026 56.4290,120.8748 59.2112,119.7470 61.0772,118.6192 62.7247,117.4914 64.3721,116.3636 65.6951,115.2357 66.4497,114.1079 67.2043,112.9801 67.9588,111.8523 68.7134,110.7245 69.4680,109.5967 75.3062,108.4689 76.8893,107.3411 78.4723,106.2133 79.3149,105.0855 79.9153,103.9576 80.5158,102.8298 81.1162,101.7020 81.7167,100.5742 82.3171,99.4464 82.9176,98.3186 83.5180,97.1908 84.1185,96.0630 84.7189,94.9352 85.3194,93.8074 85.9198,92.6796 86.5203,91.5517 87.1207,90.4239 87.7212,89.2961 88.2045,88.1683 88.5188,87.0405 88.8332,85.9127 89.1476,84.7849 89.4620,83.6571 89.7763,82.5293 90.0907,81.4015 90.4051,80.2736 90.7195,79.1458 91.0339,78.0180 91.3482,76.8902 91.6626,75.7624 91.9770,74.6346 92.2914,73.5068 92.6058,72.3790 92.9201,71.2512 93.2345,70.1234 93.5489,68.9956 93.8633,67.8677 94.1776,66.7399 94.4920,65.6121 94.8064,64.4843 95.1208,63.3565 95.4352,62.2287 95.7495,61.1009 96.0111,59.9731 96.1934,58.8453 96.3039,57.7175 96.3803,56.5896 96.4567,55.4618 96.5330,54.3340 96.6094,53.2062 96.6858,52.0784 96.7621,50.9506 96.8385,49.8228 96.9148,48.6950 96.9912,47.5672 97.0676,46.4394 97.1439,45.3116 97.2203,44.1837 97.2966,43.0559 97.3730,41.9281 97.4494,40.8003 97.5257,39.6725 97.6021,38.5447 97.6784,37.4169 97.7548,36.2891 97.8312,35.1613 97.9075,34.0335 97.9839,32.9056 98.0602,31.7778 98.1366,30.6500 98.2130,29.5222 98.2893,28.3944 98.3657,27.2666 98.4420,26.1388 98.5184,25.0110 98.5948,23.8832 98.6711,22.7554 98.7475,21.6276 98.8239,20.4997 98.9002,19.3719 98.9766,18.2441 99.0529,17.1163 99.1293,15.9885 99.2057,14.8607 99.2820,13.7329 99.3584,12.6051 99.4347,11.4773 99.5111,10.3495 99.5875,9.2216 99.6638,8.0938 99.7402,6.9660 99.8165,5.8382 99.8929,4.7104 99.9693,3.5826 100.0456,2.4548 100.1220,1.3270 100.1983,0.1992 100.2747,-0.9286 100.3511,-2.0564 100.4274,-3.1843 100.5038,-4.3121 100.5801,-5.4399 100.6565,-6.5677 100.7329,-7.6955 100.8092,-8.8233 100.8856,-9.9511 100.9619,-11.0789 101.0383,-12.2067 101.1147,-13.3345 101.1910,-14.4624 101.2674,-15.5902 101.3438,-16.7180 101.4201,-17.8458 101.4965,-18.9736 101.5728,-20.1014 101.6492,-21.2292 101.7256,-22.3570 101.8019,-23.4848 101.8783,-24.6126 101.9291,-25.7404 101.9728,-26.8683 102.0165,-27.9961 102.0602,-29.1239 102.1039,-30.2517 102.1476,-31.3795 102.1913,-32.5073 102.2350,-33.6351 102.2787,-34.7629 102.3224,-35.8907 102.3661,-37.0185 102.4098,-38.1464 102.4535,-39.2742 102.4972,-40.4020 102.5409,-41.5298 102.5846,-42.6576 102.6283,-43.7854 102.6720,-44.9132 102.7157,-46.0410 102.7594,-47.1688 102.8031,-48.2966 102.8468,-49.4244 102.8905,-50.5523 102.9342,-51.6801 102.9779,-52.8079 103.0216,-53.9357 103.0653,-55.0635 103.1090,-56.1913 103.1527,-57.3191 103.1964,-58.4469 103.2400,-59.5747 103.2837,-60.7025 103.3274,-61.8304 103.3711,-62.9582 103.4148,-64.0860 103.4585,-65.2138 103.5022,-66.3416 103.5140,-67.4694 103.4935,-68.5972 103.4730,-69.7250 103.4525,-70.8528 103.4320,-71.9806 103.4115,-73.1084 103.3910,-74.2363 103.3705,-75.3641 103.3500,-76.4919 103.3295,-77.6197 103.3090,-78.7475 103.2885,-79.8753 103.2680,-81.0031 103.2475,-82.1309 103.2270,-83.2587 103.2065,-84.3865 103.1860,-85.5144 103.1655,-86.6422 103.1450,-87.7700 103.1245,-88.8978 103.1040,-90.0256 103.0835,-91.1534 103.0630,-92.2812 103.0425,-93.4090 103.0220,-94.5368 103.0015,-95.6646 102.9810,-96.7925 94.0610,-97.9203 4.4885,-99.0481 0.0000,-100.1759 Z" fill="none" stroke="red" stroke-width="0.353" stroke-dasharray="4,4"/>
  <line x1="0" y1="109.25819999999999" x2="0" y2="129.2582" stroke="red" stroke-width="1" stroke-dasharray="10,4,2,4" />
</svg>